<svg xmlns="http://www.w3.org/2000/svg" viewBox="0 0 800 800" width="800" height="800"><defs><radialGradient id="explosion-supernova-halo" cx=".5" cy=".5" r=".5"><stop offset="0" stop-color="#f2e9b0" stop-opacity=".55"/><stop offset=".12" stop-color="#fecd6d" stop-opacity=".4"/><stop offset=".32" stop-color="#ff0aa8" stop-opacity=".22"/><stop offset=".6" stop-color="#5b1030" stop-opacity=".12"/><stop offset="1" stop-color="#5b1030" stop-opacity="0"/></radialGradient><radialGradient id="explosion-supernova-rays" cx="400" cy="400" r="400" gradientUnits="userSpaceOnUse"><stop offset="0" stop-color="#dbeec2"/><stop offset=".3" stop-color="#ffdd00" stop-opacity=".85"/><stop offset=".62" stop-color="#ff0aa8" stop-opacity=".45"/><stop offset="1" stop-color="#ff0aa8" stop-opacity="0"/></radialGradient><radialGradient id="explosion-supernova-l1" cx="400" cy="400" r="330" gradientUnits="userSpaceOnUse"><stop offset="0" stop-color="#ffdd00"/><stop offset=".35" stop-color="#e41e2d" stop-opacity=".9"/><stop offset=".72" stop-color="#ff0aa8" stop-opacity=".55"/><stop offset="1" stop-color="#5b1030" stop-opacity="0"/></radialGradient><radialGradient id="explosion-supernova-l2" cx="400" cy="400" r="225" gradientUnits="userSpaceOnUse"><stop offset="0" stop-color="#dbeec2"/><stop offset=".38" stop-color="#ffdd00"/><stop offset=".75" stop-color="#ff0aa8" stop-opacity=".85"/><stop offset="1" stop-color="#d7263d" stop-opacity=".2"/></radialGradient><radialGradient id="explosion-supernova-l3" cx="400" cy="400" r="140" gradientUnits="userSpaceOnUse"><stop offset="0" stop-color="#dbeec2"/><stop offset=".55" stop-color="#f2e9b0"/><stop offset="1" stop-color="#fecd6d" stop-opacity=".5"/></radialGradient><radialGradient id="explosion-supernova-core" cx=".5" cy=".5" r=".5"><stop offset="0" stop-color="#dbeec2"/><stop offset=".45" stop-color="#f2e9b0" stop-opacity=".95"/><stop offset="1" stop-color="#ffdd00" stop-opacity="0"/></radialGradient><radialGradient id="explosion-supernova-glow-f2e9b0-90" cx=".5" cy=".5" r=".5"><stop offset="0" stop-color="#f2e9b0" stop-opacity=".9"/><stop offset=".2" stop-color="#f2e9b0" stop-opacity=".45"/><stop offset=".5" stop-color="#f2e9b0" stop-opacity=".11"/><stop offset="1" stop-color="#f2e9b0" stop-opacity="0"/></radialGradient><radialGradient id="explosion-supernova-glow-ffdd00-75" cx=".5" cy=".5" r=".5"><stop offset="0" stop-color="#ffdd00" stop-opacity=".75"/><stop offset=".2" stop-color="#ffdd00" stop-opacity=".38"/><stop offset=".5" stop-color="#ffdd00" stop-opacity=".09"/><stop offset="1" stop-color="#ffdd00" stop-opacity="0"/></radialGradient><radialGradient id="explosion-supernova-glow-ff0aa8-75" cx=".5" cy=".5" r=".5"><stop offset="0" stop-color="#ff0aa8" stop-opacity=".75"/><stop offset=".2" stop-color="#ff0aa8" stop-opacity=".38"/><stop offset=".5" stop-color="#ff0aa8" stop-opacity=".09"/><stop offset="1" stop-color="#ff0aa8" stop-opacity="0"/></radialGradient></defs>
<circle cx="400" cy="400" r="400" fill="url(#explosion-supernova-halo)"/>
<g fill="url(#explosion-supernova-rays)" opacity=".85"><polygon points="400,406.6 754.9,398.6 400,393.4"/><polygon points="399.4,404.9 692.2,433.3 400.6,395.1"/><polygon points="398.9,405 688.6,460.8 401.1,395"/><polygon points="398.7,403.3 688,512.5 401.3,396.7"/><polygon points="397.7,405 723.2,549.3 402.3,395"/><polygon points="396.5,405.8 734.6,602.9 403.5,394.2"/><polygon points="398.2,402.1 673.2,635 401.8,397.9"/><polygon points="398.4,401.6 613,608.9 401.6,398.4"/><polygon points="398.3,401.3 547.8,588.6 401.7,398.7"/><polygon points="394.6,403.1 572.4,696.7 405.4,396.9"/><polygon points="395.9,401.8 526.8,695.2 404.1,398.2"/><polygon points="396.7,400.9 477.8,672.9 403.3,399.1"/><polygon points="393.9,400.8 453.4,794 406.1,399.2"/><polygon points="396.9,400.1 410.6,654.4 403.1,399.9"/><polygon points="394.2,399.8 391.6,604.2 405.8,400.2"/><polygon points="396.1,399.3 336.5,777.7 403.9,400.7"/><polygon points="398.1,399.4 283,744.4 401.9,400.6"/><polygon points="396,398.4 258.9,749.2 404,401.6"/><polygon points="398,398.7 219.4,686.8 402,401.3"/><polygon points="397.3,398 188.3,678.2 402.7,402"/><polygon points="394.9,395.5 229.1,593.5 405.1,404.5"/><polygon points="398,397.5 157.2,595.3 402,402.5"/><polygon points="396.6,395.1 234.6,516.5 403.4,404.9"/><polygon points="398,396.3 131.4,543.7 402,403.7"/><polygon points="399,397.5 53.9,535.7 401,402.5"/><polygon points="399.1,396 191.3,446.9 400.9,404"/><polygon points="399,393.2 157.1,434.1 401,406.8"/><polygon points="400.2,393.6 70.3,392 399.8,406.4"/><polygon points="400.6,393.8 130.3,374.8 399.4,406.2"/><polygon points="401.7,393.3 195.7,349.1 398.3,406.7"/><polygon points="401.9,394.4 91.8,295.8 398.1,405.6"/><polygon points="401,397.9 174.4,290.5 399,402.1"/><polygon points="401.7,397.3 136,238.5 398.3,402.7"/><polygon points="402.8,396.8 144,181.7 397.2,403.2"/><polygon points="403.7,396.8 209.4,182.5 396.3,403.2"/><polygon points="402.3,398.4 269.6,213.6 397.7,401.6"/><polygon points="402.9,398.5 220.8,64.8 397.1,401.5"/><polygon points="406.1,397.2 257,89.8 393.9,402.8"/><polygon points="406.1,398 280.7,34.2 393.9,402"/><polygon points="402.5,399.6 343.5,63.4 397.5,400.4"/><polygon points="403.2,399.7 363.2,14.4 396.8,400.3"/><polygon points="406.1,400.5 418.1,158 393.9,399.5"/><polygon points="402.8,400.5 459.6,76.7 397.2,399.5"/><polygon points="403,401 462,205.5 397,399"/><polygon points="404.6,402 546.1,65.8 395.4,398"/><polygon points="402.6,401.5 589,59 397.4,398.5"/><polygon points="403.5,402.4 538.7,197.8 396.5,397.6"/><polygon points="402.9,402.5 549.3,230.2 397.1,397.5"/><polygon points="402.4,402.9 640.8,200.3 397.6,397.1"/><polygon points="402.8,404.5 733.2,195.5 397.2,395.5"/><polygon points="401.2,402.4 679,265.2 398.8,397.6"/><polygon points="402.5,406.1 679.5,286.3 397.5,393.9"/><polygon points="400.5,402.1 778.3,316.7 399.5,397.9"/><polygon points="400.6,405.6 687.3,369.6 399.4,394.4"/></g>
<polygon points="762.8,392.1 526,410.1 731.8,499.1 519.7,453.6 695.7,584.9 505,477.6 629.5,652.7 482.5,505.3 534.5,658.3 444.8,512.9 474.1,687.9 423.3,527.1 379.7,742.2 380.8,520.1 316.3,680.4 349.2,525.2 253.6,685.7 327.9,505.8 235.1,565.6 299.1,473.7 94.8,570.6 299.3,445.2 103.6,487.1 286.5,419.1 94.5,385.1 264.3,383.1 102,326.7 284.8,357.1 104.7,214.7 307.1,321.7 226.3,222.8 319.7,304.3 243.2,101.1 350.3,270.7 336.4,185.8 383.9,282.9 390.9,135.6 418.2,276.5 479.7,73.6 453.8,288.8 491.2,221.7 471.6,314.9 610.8,199.5 504.2,316.2 582,280.4 502.1,357.1 629.1,348.2 509.7,380.7" fill="url(#explosion-supernova-l1)" opacity=".75"/>
<polygon points="586.2,421.6 497.1,430.1 608,515.4 470.9,456.9 508,519.5 455.4,480 453.2,552.1 419.2,492.4 393.9,594.6 378.7,501.8 321.1,606.9 349.4,472.3 246.3,549.7 324.9,461.2 189.1,499.1 304.4,427.9 178.3,408.7 304,385.2 243.8,351.2 307.2,349.8 232.4,266.8 325.5,322.6 287.4,188.4 363.3,301.8 354,171.5 404.7,305.7 426.5,215 439,303.3 477.8,276.1 462,337.9 532.2,308.9 493.2,352.2 550.5,351.3 502.9,391.5" fill="url(#explosion-supernova-l2)" opacity=".9"/>
<polygon points="523.7,443.9 457.1,440.3 464.2,477.2 434.9,461.2 432.8,529.2 396.1,470.3 358.3,517.5 365.1,458.4 291.8,492.2 334.2,437.7 278.9,420.5 335.1,396.9 283.8,363.5 347.9,366.3 322,305.7 364.2,334 374,281.7 403.8,337.4 435.2,288.2 444.6,337.1 485.9,315.9 459.4,365.2 539.7,373.8 466.9,402.4" fill="url(#explosion-supernova-l3)"/>
<circle cx="400" cy="400" r="248" fill="none" stroke="#f2e9b0" stroke-opacity=".28" stroke-width="1.5"/>
<circle cx="400" cy="400" r="335" fill="none" stroke="#ff0aa8" stroke-opacity=".22" stroke-width="1" stroke-dasharray="2 9"/>
<circle cx="400" cy="400" r="95" fill="url(#explosion-supernova-core)"/>
<g><circle cx="400" cy="400" r="60" fill="url(#explosion-supernova-glow-f2e9b0-90)"/><path d="M400,150Q403.8,341.2 415,385Q476.4,396.2 730,400Q476.4,403.8 415,415Q403.8,458.8 400,650Q396.2,458.8 385,415Q323.6,403.8 70,400Q323.6,396.2 385,385Q396.2,341.2 400,150Z" fill="#dbeec2"/><circle cx="400" cy="400" r="11.2" fill="#dbeec2"/></g>
<g><circle cx="400" cy="400" r="10" fill="url(#explosion-supernova-glow-ffdd00-75)"/><path d="M484.9,315.1Q422.1,381.3 413.6,400Q422.1,418.7 484.9,484.9Q418.7,422.1 400,413.6Q381.3,422.1 315.1,484.9Q377.9,418.7 386.4,400Q377.9,381.3 315.1,315.1Q381.3,377.9 400,386.4Q418.7,377.9 484.9,315.1Z" fill="#dbeec2"/><circle cx="400" cy="400" r="5.4" fill="#dbeec2"/></g>
<g fill="#ff0aa8"><circle cx="514.5" cy="697.2" r="0.7" opacity=".87"/><circle cx="612.3" cy="606.5" r="1.8" opacity=".82"/><circle cx="422.7" cy="739.2" r="1.1" opacity=".66"/><circle cx="62.6" cy="482" r="1.1" opacity=".66"/><circle cx="263.3" cy="577.3" r="0.7" opacity=".82"/><circle cx="507.8" cy="149.3" r="2.2" opacity=".82"/><circle cx="636.4" cy="416" r="2.5" opacity=".73"/><circle cx="161.4" cy="425.2" r="2" opacity=".85"/><circle cx="407.9" cy="130.8" r="2" opacity=".43"/><circle cx="468.4" cy="87.5" r="1" opacity=".77"/><circle cx="569.8" cy="443" r="1.4" opacity=".42"/><circle cx="620.9" cy="453.8" r="0.8" opacity=".45"/><circle cx="69.6" cy="431.5" r="1.8" opacity=".41"/><circle cx="347.8" cy="70.5" r="1.8" opacity=".53"/><circle cx="481.4" cy="164.9" r="1.1" opacity=".98"/><circle cx="48.6" cy="442" r="0.6" opacity=".51"/><circle cx="129" cy="426" r="1.8" opacity=".86"/><circle cx="514.6" cy="574" r="1" opacity=".94"/><circle cx="485.4" cy="706.4" r="1.5" opacity=".96"/></g><g fill="#f2e9b0"><circle cx="617.1" cy="431.3" r="0.7" opacity=".57"/><circle cx="379.4" cy="44.8" r="0.9" opacity=".59"/><circle cx="600" cy="294.5" r="2.5" opacity=".48"/><circle cx="338.7" cy="257.8" r="2.1" opacity=".61"/><circle cx="68.1" cy="394.2" r="1.7" opacity=".69"/><circle cx="531.1" cy="572.4" r="1.1" opacity=".49"/><circle cx="686.6" cy="285.6" r="1.4" opacity=".99"/><circle cx="194.2" cy="155.3" r="1" opacity=".98"/><circle cx="762.6" cy="505.6" r="0.9" opacity=".98"/><circle cx="347.8" cy="69.5" r="1.5" opacity=".85"/><circle cx="217.8" cy="598.4" r="2.1" opacity=".74"/><circle cx="601.5" cy="281.8" r="2.6" opacity=".63"/><circle cx="440.8" cy="230.8" r="2.8" opacity=".92"/><circle cx="634.3" cy="241.3" r="1.8" opacity=".76"/><circle cx="578.1" cy="296.5" r="0.9" opacity=".56"/></g><g fill="#fecd6d"><circle cx="361.5" cy="169.9" r="0.9" opacity=".84"/><circle cx="520.4" cy="221.1" r="1.4" opacity=".62"/><circle cx="437.6" cy="54.7" r="0.8" opacity=".51"/><circle cx="331.8" cy="615" r="1.8" opacity=".72"/><circle cx="713.2" cy="269.8" r="0.7" opacity=".98"/><circle cx="350.2" cy="593.3" r="1" opacity=".94"/><circle cx="243.6" cy="604" r="2" opacity=".9"/><circle cx="390.8" cy="24.1" r="1.3" opacity=".75"/><circle cx="223.2" cy="604.9" r="2.1" opacity=".84"/><circle cx="266" cy="529.1" r="2.9" opacity=".78"/><circle cx="509.9" cy="593.2" r="1.8" opacity=".56"/><circle cx="53.2" cy="532.4" r="0.7" opacity=".85"/><circle cx="705.5" cy="600.5" r="0.5" opacity=".97"/><circle cx="360.6" cy="215.3" r="2.3" opacity=".45"/><circle cx="667.2" cy="463.6" r="0.9" opacity=".9"/></g><g fill="#d7263d"><circle cx="514.3" cy="291" r="1.8" opacity=".72"/><circle cx="519.4" cy="587.4" r="1.8" opacity=".53"/><circle cx="682.6" cy="290.5" r="0.8" opacity=".64"/><circle cx="513.3" cy="163.1" r="1.6" opacity=".85"/><circle cx="677.4" cy="179.8" r="1.7" opacity=".95"/><circle cx="100.2" cy="649.3" r="0.7" opacity=".47"/><circle cx="486.6" cy="617.9" r="2.5" opacity=".93"/><circle cx="263.9" cy="127.5" r="2.2" opacity=".69"/><circle cx="433.4" cy="120.3" r="1" opacity=".89"/><circle cx="91.5" cy="191" r="1.7" opacity=".66"/><circle cx="558.3" cy="492.4" r="1" opacity=".59"/><circle cx="98.4" cy="412" r="0.7" opacity=".77"/><circle cx="731.3" cy="499" r="1" opacity=".4"/><circle cx="617.1" cy="211.2" r="0.8" opacity=".79"/><circle cx="447" cy="626" r="1.6" opacity=".71"/><circle cx="473.7" cy="213.8" r="2.9" opacity=".56"/><circle cx="665.5" cy="420.6" r="1.5" opacity=".58"/><circle cx="391" cy="620.8" r="0.9" opacity=".59"/></g><g fill="#dbeec2"><circle cx="463.9" cy="696.2" r="2" opacity=".54"/><circle cx="742.6" cy="452.7" r="1.2" opacity=".74"/><circle cx="332" cy="722.4" r="0.6" opacity=".97"/><circle cx="16.2" cy="381.1" r="1.5" opacity=".46"/><circle cx="95.7" cy="511" r="1.5" opacity=".86"/><circle cx="586.6" cy="161.5" r="0.7" opacity=".97"/><circle cx="136.8" cy="543.2" r="1.1" opacity=".72"/><circle cx="743.7" cy="458.6" r="0.5" opacity=".49"/><circle cx="449.3" cy="564.4" r="1.1" opacity=".62"/><circle cx="575.9" cy="612" r="1.1" opacity=".75"/><circle cx="94" cy="569.4" r="1.7" opacity=".48"/><circle cx="178.7" cy="638.9" r="1" opacity=".73"/><circle cx="153.6" cy="460" r="0.8" opacity=".74"/><circle cx="261.9" cy="747.8" r="0.5" opacity=".58"/><circle cx="98.2" cy="370.2" r="1" opacity=".41"/><circle cx="550.8" cy="167.8" r="1.6" opacity=".87"/><circle cx="485.1" cy="145.7" r="2.1" opacity=".86"/><circle cx="397.3" cy="96.9" r="1.1" opacity=".87"/></g><g fill="#ffdd00"><circle cx="678.5" cy="251.1" r="1.4" opacity=".41"/><circle cx="480" cy="177" r="2.1" opacity=".87"/><circle cx="472.7" cy="162.8" r="0.7" opacity=".61"/><circle cx="154.8" cy="589.2" r="1.5" opacity=".84"/><circle cx="388.7" cy="671.8" r="2" opacity=".79"/><circle cx="779.3" cy="373.2" r="1.5" opacity=".53"/><circle cx="410.2" cy="735.9" r="1.4" opacity=".67"/><circle cx="260" cy="187.6" r="1.2" opacity=".66"/><circle cx="362.3" cy="105" r="1.2" opacity=".62"/><circle cx="721.3" cy="452.9" r="1.7" opacity=".79"/><circle cx="434.9" cy="187.7" r="2.3" opacity=".41"/><circle cx="74.7" cy="587" r="1.5" opacity=".66"/><circle cx="305.8" cy="631.9" r="1.7"/><circle cx="311.6" cy="245.8" r="2.3" opacity=".46"/></g><g fill="#7dffaa"><circle cx="354.7" cy="169.4" r="1.1" opacity=".71"/><circle cx="575.5" cy="488.5" r="2.5" opacity=".9"/><circle cx="554" cy="709.9" r="0.9" opacity=".41"/><circle cx="406.5" cy="626.7" r="2.5" opacity=".6"/><circle cx="148.6" cy="466.1" r="2.4" opacity=".8"/><circle cx="67.1" cy="349.7" r="0.7" opacity=".95"/><circle cx="285" cy="681.5" r="1.5" opacity=".91"/><circle cx="198.4" cy="355.5" r="1.1" opacity=".52"/><circle cx="175.2" cy="576.1" r="2" opacity=".79"/><circle cx="663.9" cy="627.7" r="1.9" opacity=".88"/><circle cx="399.4" cy="18.1" r="0.9" opacity=".8"/></g>
<g><circle cx="170" cy="210" r="15.3" fill="url(#explosion-supernova-glow-ff0aa8-75)"/><path d="M170,176Q170.8,201.7 173.4,206.6Q178.3,209.2 204,210Q178.3,210.8 173.4,213.4Q170.8,218.3 170,244Q169.2,218.3 166.6,213.4Q161.7,210.8 136,210Q161.7,209.2 166.6,206.6Q169.2,201.7 170,176Z" fill="#dbeec2"/><circle cx="170" cy="210" r="1.5" fill="#dbeec2"/></g>
<g><circle cx="640" cy="610" r="12.6" fill="url(#explosion-supernova-glow-ff0aa8-75)"/><path d="M640,582Q640.7,603.1 642.8,607.2Q646.9,609.3 668,610Q646.9,610.7 642.8,612.8Q640.7,616.9 640,638Q639.3,616.9 637.2,612.8Q633.1,610.7 612,610Q633.1,609.3 637.2,607.2Q639.3,603.1 640,582Z" fill="#dbeec2"/><circle cx="640" cy="610" r="1.3" fill="#dbeec2"/></g>
<g><circle cx="612" cy="168" r="9" fill="url(#explosion-supernova-glow-ff0aa8-75)"/><path d="M612,148Q612.5,163.1 614,166Q616.9,167.5 632,168Q616.9,168.5 614,170Q612.5,172.9 612,188Q611.5,172.9 610,170Q607.1,168.5 592,168Q607.1,167.5 610,166Q611.5,163.1 612,148Z" fill="#dbeec2"/><circle cx="612" cy="168" r="0.9" fill="#dbeec2"/></g>
<g><circle cx="205" cy="600" r="9.9" fill="url(#explosion-supernova-glow-ff0aa8-75)"/><path d="M205,578Q205.6,594.6 207.2,597.8Q210.4,599.5 227,600Q210.4,600.5 207.2,602.2Q205.6,605.4 205,622Q204.4,605.4 202.8,602.2Q199.6,600.5 183,600Q199.6,599.5 202.8,597.8Q204.4,594.6 205,578Z" fill="#dbeec2"/><circle cx="205" cy="600" r="1" fill="#dbeec2"/></g>
</svg>
