<svg xmlns="http://www.w3.org/2000/svg" viewBox="0 0 1000 1000" width="1000" height="1000"><defs><linearGradient id="b1" x1="0" y1="0" x2="1" y2="0"><stop offset="0" stop-color="#f2e9b0"/><stop offset="0.45" stop-color="#fecd6d"/><stop offset="0.7" stop-color="#ff0aa8"/><stop offset="1" stop-color="#5b1030" stop-opacity="0.6"/></linearGradient><linearGradient id="b2" x1="0" y1="0" x2="1" y2="0"><stop offset="0" stop-color="#0ca550" stop-opacity="0.0"/><stop offset="0.3" stop-color="#0ca550" stop-opacity="0.8"/><stop offset="0.7" stop-color="#0b4a9a"/><stop offset="1" stop-color="#5686bb" stop-opacity="0.2"/></linearGradient><radialGradient id="b-p"><stop offset="0" stop-color="#f2e9b0"/><stop offset="0.3" stop-color="#fecd6d"/><stop offset="0.55" stop-color="#ff0aa8" stop-opacity="0.75"/><stop offset="1" stop-color="#ff0aa8" stop-opacity="0"/></radialGradient><radialGradient id="b-t"><stop offset="0" stop-color="#dbeec2"/><stop offset="0.3" stop-color="#7dffaa" stop-opacity="0.9"/><stop offset="0.55" stop-color="#0ca550" stop-opacity="0.6"/><stop offset="1" stop-color="#0b4a9a" stop-opacity="0"/></radialGradient></defs><path d="M0 320C160 210 340 225 440 340C320 270 160 270 0 320Z" fill="url(#b2)"/><path d="M70 500C150 760 430 880 740 760C480 840 230 760 70 500Z" fill="url(#b1)"/><path d="M520 640C570 610 640 606 690 630C640 624 580 626 520 640Z" fill="#f4f1e4" opacity=".85"/><circle cx="780" cy="700" r="20" fill="url(#b-p)"/><circle cx="250" cy="420" r="14" fill="url(#b-t)"/><circle cx="620" cy="520" r="9" fill="url(#b-p)"/><g fill="#fecd6d"><circle cx="885" cy="766" r="1.6" opacity="0.28"/><circle cx="844" cy="711" r="3.3" opacity="0.36"/><circle cx="766" cy="678" r="3.0" opacity="0.31"/><circle cx="706" cy="622" r="3.4" opacity="0.60"/><circle cx="883" cy="661" r="2.6" opacity="0.34"/><circle cx="572" cy="527" r="2.7" opacity="0.36"/><circle cx="689" cy="752" r="2.9" opacity="0.45"/><circle cx="640" cy="526" r="2.3" opacity="0.30"/><circle cx="733" cy="780" r="3.3" opacity="0.31"/><circle cx="864" cy="727" r="3.5" opacity="0.57"/><circle cx="819" cy="725" r="2.4" opacity="0.59"/><circle cx="887" cy="562" r="3.5" opacity="0.50"/><circle cx="717" cy="658" r="2.8" opacity="0.57"/><circle cx="730" cy="736" r="2.4" opacity="0.56"/><circle cx="866" cy="640" r="3.0" opacity="0.57"/><circle cx="806" cy="647" r="2.0" opacity="0.36"/><circle cx="798" cy="563" r="3.9" opacity="0.34"/><circle cx="870" cy="600" r="4.1" opacity="0.50"/><circle cx="731" cy="655" r="3.2" opacity="0.46"/><circle cx="666" cy="574" r="2.8" opacity="0.58"/><circle cx="772" cy="540" r="3.7" opacity="0.50"/><circle cx="869" cy="570" r="3.5" opacity="0.27"/><circle cx="782" cy="591" r="2.0" opacity="0.56"/><circle cx="596" cy="656" r="3.8" opacity="0.34"/><circle cx="632" cy="749" r="2.6" opacity="0.50"/><circle cx="571" cy="614" r="1.9" opacity="0.49"/><circle cx="588" cy="768" r="1.5" opacity="0.51"/><circle cx="567" cy="586" r="3.7" opacity="0.30"/></g></svg>
