<svg xmlns="http://www.w3.org/2000/svg" viewBox="0 0 1000 1000" width="1000" height="1000"><defs><linearGradient id="dw" x1="0" y1="0" x2="1" y2="0"><stop offset="0" stop-color="#f2e9b0"/><stop offset="0.45" stop-color="#fecd6d"/><stop offset="0.7" stop-color="#ff0aa8"/><stop offset="1" stop-color="#5b1030" stop-opacity="0.6"/></linearGradient><linearGradient id="dc" x1="0" y1="0" x2="1" y2="0"><stop offset="0" stop-color="#0ca550" stop-opacity="0.0"/><stop offset="0.3" stop-color="#0ca550" stop-opacity="0.8"/><stop offset="0.7" stop-color="#0b4a9a"/><stop offset="1" stop-color="#5686bb" stop-opacity="0.2"/></linearGradient><linearGradient id="dm" x1="0" y1="0" x2="0" y2="1"><stop offset="0" stop-color="#0b4a9a" stop-opacity="0.2"/><stop offset="0.4" stop-color="#0ca550" stop-opacity="0.7"/><stop offset="0.75" stop-color="#5b1030"/><stop offset="1" stop-color="#ff0aa8"/></linearGradient><radialGradient id="dp"><stop offset="0" stop-color="#f2e9b0"/><stop offset="0.3" stop-color="#fecd6d"/><stop offset="0.55" stop-color="#ff0aa8" stop-opacity="0.75"/><stop offset="1" stop-color="#ff0aa8" stop-opacity="0"/></radialGradient><radialGradient id="dt"><stop offset="0" stop-color="#dbeec2"/><stop offset="0.3" stop-color="#7dffaa" stop-opacity="0.9"/><stop offset="0.55" stop-color="#0ca550" stop-opacity="0.6"/><stop offset="1" stop-color="#0b4a9a" stop-opacity="0"/></radialGradient></defs><path d="M0 640C240 520 560 500 1000 600C600 540 280 560 0 700Z" fill="url(#dc)"/><path d="M0 420C300 300 620 330 860 460C640 380 330 360 0 470Z" fill="url(#dw)" opacity=".9"/><path d="M520 360C590 352 660 362 720 390C660 372 590 366 520 360Z" fill="#f4f1e4" opacity=".85"/><circle cx="860" cy="460" r="17" fill="url(#dp)"/><circle cx="160" cy="610" r="12" fill="url(#dt)"/><circle cx="640" cy="560" r="8" fill="url(#dt)"/><path d="M300 230Q300 250 305.6 250Q300 250 300 270Q300 250 294.4 250Q300 250 300 230Z" fill="#f4f1e4" opacity="0.85"/><path d="M920 288Q920 300 923.36 300Q920 300 920 312Q920 300 916.64 300Q920 300 920 288Z" fill="#f4f1e4" opacity="0.6"/><g fill="#fecd6d"><circle cx="762" cy="366" r="2.9" opacity="0.54"/><circle cx="814" cy="443" r="2.9" opacity="0.38"/><circle cx="710" cy="369" r="3.0" opacity="0.46"/><circle cx="626" cy="418" r="3.2" opacity="0.41"/><circle cx="856" cy="525" r="3.4" opacity="0.28"/><circle cx="556" cy="402" r="2.3" opacity="0.50"/><circle cx="811" cy="451" r="2.9" opacity="0.45"/><circle cx="542" cy="445" r="1.9" opacity="0.40"/><circle cx="533" cy="468" r="3.6" opacity="0.27"/><circle cx="727" cy="354" r="2.2" opacity="0.31"/><circle cx="823" cy="481" r="3.6" opacity="0.33"/><circle cx="774" cy="476" r="2.6" opacity="0.57"/><circle cx="742" cy="401" r="3.1" opacity="0.42"/><circle cx="602" cy="461" r="1.5" opacity="0.41"/><circle cx="719" cy="350" r="3.0" opacity="0.28"/><circle cx="751" cy="411" r="1.5" opacity="0.60"/><circle cx="552" cy="378" r="2.6" opacity="0.34"/><circle cx="710" cy="435" r="2.8" opacity="0.44"/><circle cx="630" cy="388" r="3.1" opacity="0.40"/><circle cx="707" cy="515" r="1.4" opacity="0.35"/><circle cx="722" cy="360" r="3.2" opacity="0.39"/><circle cx="638" cy="385" r="3.7" opacity="0.27"/><circle cx="809" cy="477" r="3.6" opacity="0.50"/><circle cx="648" cy="449" r="3.6" opacity="0.26"/><circle cx="819" cy="471" r="1.9" opacity="0.59"/><circle cx="632" cy="351" r="2.0" opacity="0.43"/></g></svg>